<svg width="53" height="42" viewBox="0 0 53 42" fill="none" xmlns="http://www.w3.org/2000/svg">
<path d="M0 0.750488H8.41763V2.8281H0V0.750488Z" fill="#231F20"/>
<path d="M6.39479 33.6572L6.39479 0.750488H8.41763L8.41763 33.6572H6.39479Z" fill="#231F20"/>
<path d="M49.8533 33.6572H6.39479V31.5796L49.8533 31.5796V33.6572Z" fill="#231F20"/>
<path d="M51.1148 24.4755L53 25.2288L49.8295 33.5991L47.9443 32.8458L51.1148 24.4755Z" fill="#231F20"/>
<path d="M19.7715 38.751C19.7715 40.4907 18.3984 41.9009 16.7046 41.9009C15.0108 41.9009 13.6377 40.4907 13.6377 38.751C13.6377 37.0113 15.0108 35.6011 16.7046 35.6011C18.3984 35.6011 19.7715 37.0113 19.7715 38.751Z" fill="#0CAFCD"/>
<path d="M39.2822 38.751C39.2822 40.4907 37.9091 41.9009 36.2153 41.9009C34.5215 41.9009 33.1484 40.4907 33.1484 38.751C33.1484 37.0113 34.5215 35.6011 36.2153 35.6011C37.9091 35.6011 39.2822 37.0113 39.2822 38.751Z" fill="#D5204A"/>
<path d="M9.52686 11.3394H14.3556V30.6411H9.52686V11.3394Z" fill="#F9A21E"/>
<path d="M10.3755 13.082H13.4424V14.9586H10.3755V13.082Z" fill="#FDE3B7"/>
<path d="M10.3755 27.0225H13.4424V27.6927H10.3755V27.0225Z" fill="#FDE3B7"/>
<path d="M10.3755 28.6978H13.4424V29.3009H10.3755V28.6978Z" fill="#FDE3B7"/>
<path d="M14.3555 15.4946H19.1842V30.6411H14.3555V15.4946Z" fill="#D5204A"/>
<path d="M14.3555 17.103H19.1842V18.0413H14.3555V17.103Z" fill="#EFDFC5"/>
<path d="M15.2041 18.645H18.3362V19.3822H15.2041V18.645Z" fill="#EFDFC5"/>
<path d="M15.2041 23.6709H18.3362V28.9655H15.2041V23.6709Z" fill="#EFDFC5"/>
<mask id="mask0_328_7049" style="mask-type:alpha" maskUnits="userSpaceOnUse" x="21" y="21" width="18" height="5">
<path d="M21.5991 21.3257H38.9564V25.5899H21.5991V21.3257Z" fill="#D9D9D9"/>
</mask>
<g mask="url(#mask0_328_7049)">
<path d="M21.5991 25.5898L21.5991 21.3256L38.9368 21.3256L38.9368 25.5898L21.5991 25.5898Z" fill="#0CAFCD"/>
<path d="M22.4546 23.1909L22.4546 22.6046L39.7387 22.6046L39.7387 23.1909L22.4546 23.1909Z" fill="#FDE3B7"/>
<path fill-rule="evenodd" clip-rule="evenodd" d="M22.4546 23.1909L22.4546 22.6046L39.7387 22.6046L39.7387 23.1909L22.4546 23.1909Z" fill="#E9C99D"/>
<path d="M22.4546 24.3638L22.4546 23.7774L39.7387 23.7774L39.7387 24.3638L22.4546 24.3638Z" fill="#FDE3B7"/>
<path fill-rule="evenodd" clip-rule="evenodd" d="M22.4546 24.3638L22.4546 23.7774L39.7387 23.7774L39.7387 24.3638L22.4546 24.3638Z" fill="#E9C99D"/>
<path d="M22.4546 24.9497L22.4546 24.3634L39.7387 24.3634L39.7387 24.9497L22.4546 24.9497Z" fill="#FDE3B7"/>
<path fill-rule="evenodd" clip-rule="evenodd" d="M22.4546 24.9497L22.4546 24.3634L39.7387 24.3634L39.7387 24.9497L22.4546 24.9497Z" fill="#E9C99D"/>
<path d="M22.4546 22.605L22.4546 22.0187L39.7387 22.0186L39.7387 22.605L22.4546 22.605Z" fill="#FDE3B7"/>
<path fill-rule="evenodd" clip-rule="evenodd" d="M22.4546 22.605L22.4546 22.0187L39.7387 22.0186L39.7387 22.605L22.4546 22.605Z" fill="#E9C99D"/>
<path d="M22.4546 23.7773L22.4546 23.191L39.7387 23.191L39.7387 23.7773L22.4546 23.7773Z" fill="#FDE3B7"/>
<path fill-rule="evenodd" clip-rule="evenodd" d="M22.4546 23.7773L22.4546 23.191L39.7387 23.191L39.7387 23.7773L22.4546 23.7773Z" fill="#E9C99D"/>
</g>
<mask id="mask1_328_7049" style="mask-type:alpha" maskUnits="userSpaceOnUse" x="20" y="25" width="22" height="6">
<path d="M20.5825 25.5894H41.6796V30.8743H20.5825V25.5894Z" fill="#D9D9D9"/>
</mask>
<g mask="url(#mask1_328_7049)">
<path d="M20.5825 30.8745L20.5825 25.5896L41.6557 25.5896L41.6557 30.8745L20.5825 30.8745Z" fill="#54185A"/>
<path d="M21.623 27.9014L21.623 27.1747L42.6312 27.1747L42.6312 27.9014L21.623 27.9014Z" fill="#FDE3B7"/>
<path fill-rule="evenodd" clip-rule="evenodd" d="M21.623 27.9014L21.623 27.1747L42.6312 27.1747L42.6312 27.9014L21.623 27.9014Z" fill="#E9C99D"/>
<path d="M21.623 29.3545L21.623 28.6278L42.6312 28.6278L42.6312 29.3545L21.623 29.3545Z" fill="#FDE3B7"/>
<path fill-rule="evenodd" clip-rule="evenodd" d="M21.623 29.3545L21.623 28.6278L42.6312 28.6278L42.6312 29.3545L21.623 29.3545Z" fill="#E9C99D"/>
<path d="M21.623 30.0815L21.623 29.3549L42.6312 29.3549L42.6312 30.0815L21.623 30.0815Z" fill="#FDE3B7"/>
<path fill-rule="evenodd" clip-rule="evenodd" d="M21.623 30.0815L21.623 29.3549L42.6312 29.3549L42.6312 30.0815L21.623 30.0815Z" fill="#E9C99D"/>
<path d="M21.623 27.1743L21.623 26.4476L42.6312 26.4476L42.6312 27.1743L21.623 27.1743Z" fill="#FDE3B7"/>
<path fill-rule="evenodd" clip-rule="evenodd" d="M21.623 27.1743L21.623 26.4476L42.6312 26.4476L42.6312 27.1743L21.623 27.1743Z" fill="#E9C99D"/>
<path d="M21.623 28.6284L21.623 27.9017L42.6312 27.9017L42.6312 28.6284L21.623 28.6284Z" fill="#FDE3B7"/>
<path fill-rule="evenodd" clip-rule="evenodd" d="M21.623 28.6284L21.623 27.9017L42.6312 27.9017L42.6312 28.6284L21.623 28.6284Z" fill="#E9C99D"/>
</g>
<mask id="mask2_328_7049" style="mask-type:alpha" maskUnits="userSpaceOnUse" x="20" y="16" width="21" height="6">
<path d="M20.0981 16.5674H40.6528V21.3258H20.0981V16.5674Z" fill="#D9D9D9"/>
</mask>
<g mask="url(#mask2_328_7049)">
<path d="M20.0981 21.3262L20.0981 16.5678L40.6788 16.5678L40.6788 21.3262L20.0981 21.3262Z" fill="#F9AD30"/>
<path d="M21.1143 18.6489L21.1143 17.9946L41.6314 17.9946L41.6314 18.6489L21.1143 18.6489Z" fill="#FDE3B7"/>
<path fill-rule="evenodd" clip-rule="evenodd" d="M21.1143 18.6489L21.1143 17.9946L41.6314 17.9946L41.6314 18.6489L21.1143 18.6489Z" fill="#E9C99D"/>
<path d="M21.1143 19.958L21.1143 19.3037L41.6314 19.3037L41.6314 19.958L21.1143 19.958Z" fill="#FDE3B7"/>
<path fill-rule="evenodd" clip-rule="evenodd" d="M21.1143 19.958L21.1143 19.3037L41.6314 19.3037L41.6314 19.958L21.1143 19.958Z" fill="#E9C99D"/>
<path d="M21.1143 20.6123L21.1143 19.958L41.6314 19.958L41.6314 20.6123L21.1143 20.6123Z" fill="#FDE3B7"/>
<path fill-rule="evenodd" clip-rule="evenodd" d="M21.1143 20.6123L21.1143 19.958L41.6314 19.958L41.6314 20.6123L21.1143 20.6123Z" fill="#E9C99D"/>
<path d="M21.1143 17.9951L21.1143 17.3408L41.6314 17.3408L41.6314 17.9951L21.1143 17.9951Z" fill="#FDE3B7"/>
<path fill-rule="evenodd" clip-rule="evenodd" d="M21.1143 17.9951L21.1143 17.3408L41.6314 17.3408L41.6314 17.9951L21.1143 17.9951Z" fill="#E9C99D"/>
<path d="M21.1143 19.3037L21.1143 18.6494L41.6314 18.6494L41.6314 19.3037L21.1143 19.3037Z" fill="#FDE3B7"/>
<path fill-rule="evenodd" clip-rule="evenodd" d="M21.1143 19.3037L21.1143 18.6494L41.6314 18.6494L41.6314 19.3037L21.1143 19.3037Z" fill="#E9C99D"/>
</g>
<mask id="mask3_328_7049" style="mask-type:alpha" maskUnits="userSpaceOnUse" x="25" y="12" width="18" height="5">
<path d="M25.4487 12.6128H42.6755V16.567H25.4487V12.6128Z" fill="#D9D9D9"/>
</mask>
<g mask="url(#mask3_328_7049)">
<path d="M25.4487 16.5669L25.4487 12.6127L42.6617 12.6127L42.6617 16.5669L25.4487 16.5669Z" fill="#D5204A"/>
<path d="M26.2988 14.3428L26.2988 13.7991L43.4586 13.7991L43.4586 14.3428L26.2988 14.3428Z" fill="#FDE3B7"/>
<path fill-rule="evenodd" clip-rule="evenodd" d="M26.2988 14.3428L26.2988 13.7991L43.4586 13.7991L43.4586 14.3428L26.2988 14.3428Z" fill="#E9C99D"/>
<path d="M26.2988 15.4302L26.2988 14.8865L43.4586 14.8865L43.4586 15.4302L26.2988 15.4302Z" fill="#FDE3B7"/>
<path fill-rule="evenodd" clip-rule="evenodd" d="M26.2988 15.4302L26.2988 14.8865L43.4586 14.8865L43.4586 15.4302L26.2988 15.4302Z" fill="#E9C99D"/>
<path d="M26.2988 15.9736L26.2988 15.4299L43.4586 15.4299L43.4586 15.9736L26.2988 15.9736Z" fill="#FDE3B7"/>
<path fill-rule="evenodd" clip-rule="evenodd" d="M26.2988 15.9736L26.2988 15.4299L43.4586 15.4299L43.4586 15.9736L26.2988 15.9736Z" fill="#E9C99D"/>
<path d="M26.2988 13.7993L26.2988 13.2556L43.4586 13.2556L43.4586 13.7993L26.2988 13.7993Z" fill="#FDE3B7"/>
<path fill-rule="evenodd" clip-rule="evenodd" d="M26.2988 13.7993L26.2988 13.2556L43.4586 13.2556L43.4586 13.7993L26.2988 13.7993Z" fill="#E9C99D"/>
<path d="M26.2988 14.8867L26.2988 14.343L43.4586 14.343L43.4586 14.8867L26.2988 14.8867Z" fill="#FDE3B7"/>
<path fill-rule="evenodd" clip-rule="evenodd" d="M26.2988 14.8867L26.2988 14.343L43.4586 14.343L43.4586 14.8867L26.2988 14.8867Z" fill="#E9C99D"/>
</g>
<path d="M29.1027 14.2212H27.3408V16.3658L28.287 15.5281L29.1027 16.3658V14.2212Z" fill="#F9AD30"/>
<path d="M25.253 23.0679H23.4912V25.2125L24.4374 24.3748L25.253 25.2125V23.0679Z" fill="#D3244C"/>
<path d="M41.1094 5.8418L45.7029 5.37504L48.0787 30.0394L43.4851 30.5061L41.1094 5.8418Z" fill="#3C0414"/>
<path d="M41.2578 7.38477L45.8514 6.91801L45.9658 8.10557L41.3722 8.57232L41.2578 7.38477Z" fill="#F6E1BD"/>
<path d="M41.4526 9.40576L46.0462 8.93901L46.1302 9.81131L41.5367 10.2781L41.4526 9.40576Z" fill="#F6E1BD"/>
<path d="M42.6631 11.6665L45.3849 11.3899L45.8696 16.4217L43.1478 16.6982L42.6631 11.6665Z" fill="#F6E1BD"/>
<path d="M13.0505 18.2759C13.0505 18.9236 12.5392 19.4487 11.9085 19.4487C11.2779 19.4487 10.7666 18.9236 10.7666 18.2759C10.7666 17.6281 11.2779 17.103 11.9085 17.103C12.5392 17.103 13.0505 17.6281 13.0505 18.2759Z" fill="#FDE3B7"/>
</svg>
