<svg width="89" height="68" viewBox="0 0 89 68" fill="none" xmlns="http://www.w3.org/2000/svg">
<path d="M0 0H14.0942V3.39685H0V0Z" fill="#231F20"/>
<path d="M10.7073 53.8017L10.7072 0H14.0942L14.0942 53.8017H10.7073Z" fill="#231F20"/>
<path d="M83.4729 53.8017H10.7073V50.4048L83.4729 50.4048V53.8017Z" fill="#231F20"/>
<path d="M85.5851 38.7898L88.7417 40.0214L83.433 53.7067L80.2765 52.4751L85.5851 38.7898Z" fill="#231F20"/>
<path d="M33.1052 62.1296C33.1052 64.9739 30.8061 67.2796 27.9701 67.2796C25.134 67.2796 22.835 64.9739 22.835 62.1296C22.835 59.2853 25.134 56.9795 27.9701 56.9795C30.8061 56.9795 33.1052 59.2853 33.1052 62.1296Z" fill="#0CAFCD"/>
<path d="M65.7732 62.1296C65.7732 64.9739 63.4741 67.2796 60.638 67.2796C57.802 67.2796 55.5029 64.9739 55.5029 62.1296C55.5029 59.2853 57.802 56.9795 60.638 56.9795C63.4741 56.9795 65.7732 59.2853 65.7732 62.1296Z" fill="#D5204A"/>
<path d="M15.9517 17.3125H24.0367V48.8703H15.9517V17.3125Z" fill="#F9A21E"/>
<path d="M17.3721 20.1621H22.5072V23.2302H17.3721V20.1621Z" fill="#FDE3B7"/>
<path d="M17.3721 42.9541H22.5072V44.0499H17.3721V42.9541Z" fill="#FDE3B7"/>
<path d="M17.3721 45.6934H22.5072V46.6795H17.3721V45.6934Z" fill="#FDE3B7"/>
<path d="M24.0366 24.1064H32.1217V48.8706H24.0366V24.1064Z" fill="#D5204A"/>
<path d="M24.0366 26.7363H32.1217V28.2704H24.0366V26.7363Z" fill="#EFDFC5"/>
<path d="M25.457 29.2568H30.7014V30.4622H25.457V29.2568Z" fill="#EFDFC5"/>
<path d="M25.457 37.4746H30.7014V46.1311H25.457V37.4746Z" fill="#EFDFC5"/>
<mask id="mask0_324_7041" style="mask-type:alpha" maskUnits="userSpaceOnUse" x="36" y="33" width="30" height="8">
<path d="M36.1646 33.6396H65.2271V40.6115H36.1646V33.6396Z" fill="#D9D9D9"/>
</mask>
<g mask="url(#mask0_324_7041)">
<path d="M36.1646 40.6116L36.1646 33.6397L65.1942 33.6397L65.1942 40.6116L36.1646 40.6116Z" fill="#0CAFCD"/>
<path d="M37.5977 36.6895L37.5977 35.7308L66.5377 35.7308L66.5377 36.6895L37.5977 36.6895Z" fill="#FDE3B7"/>
<path fill-rule="evenodd" clip-rule="evenodd" d="M37.5977 36.6895L37.5977 35.7308L66.5377 35.7308L66.5377 36.6895L37.5977 36.6895Z" fill="#E9C99D"/>
<path d="M37.5977 38.6074L37.5977 37.6488L66.5377 37.6488L66.5377 38.6074L37.5977 38.6074Z" fill="#FDE3B7"/>
<path fill-rule="evenodd" clip-rule="evenodd" d="M37.5977 38.6074L37.5977 37.6488L66.5377 37.6488L66.5377 38.6074L37.5977 38.6074Z" fill="#E9C99D"/>
<path d="M37.5977 39.5654L37.5977 38.6068L66.5377 38.6068L66.5377 39.5654L37.5977 39.5654Z" fill="#FDE3B7"/>
<path fill-rule="evenodd" clip-rule="evenodd" d="M37.5977 39.5654L37.5977 38.6068L66.5377 38.6068L66.5377 39.5654L37.5977 39.5654Z" fill="#E9C99D"/>
<path d="M37.5977 35.7314L37.5977 34.7728L66.5377 34.7728L66.5377 35.7314L37.5977 35.7314Z" fill="#FDE3B7"/>
<path fill-rule="evenodd" clip-rule="evenodd" d="M37.5977 35.7314L37.5977 34.7728L66.5377 34.7728L66.5377 35.7314L37.5977 35.7314Z" fill="#E9C99D"/>
<path d="M37.5977 37.6484L37.5977 36.6898L66.5377 36.6898L66.5377 37.6484L37.5977 37.6484Z" fill="#FDE3B7"/>
<path fill-rule="evenodd" clip-rule="evenodd" d="M37.5977 37.6484L37.5977 36.6898L66.5377 36.6898L66.5377 37.6484L37.5977 37.6484Z" fill="#E9C99D"/>
</g>
<mask id="mask1_324_7041" style="mask-type:alpha" maskUnits="userSpaceOnUse" x="34" y="40" width="36" height="10">
<path d="M34.4629 40.6113H69.7872V49.2521H34.4629V40.6113Z" fill="#D9D9D9"/>
</mask>
<g mask="url(#mask1_324_7041)">
<path d="M34.4629 49.2521L34.4629 40.6114L69.7473 40.6114L69.7473 49.2521L34.4629 49.2521Z" fill="#54185A"/>
<path d="M36.2051 44.3916L36.2051 43.2035L71.3806 43.2035L71.3806 44.3916L36.2051 44.3916Z" fill="#FDE3B7"/>
<path fill-rule="evenodd" clip-rule="evenodd" d="M36.2051 44.3916L71.3806 44.3916L71.3806 43.2035L36.2051 43.2035L36.2051 44.3916Z" fill="#E9C99D"/>
<path d="M36.2051 46.7676L36.2051 45.5795L71.3806 45.5795L71.3806 46.7676L36.2051 46.7676Z" fill="#FDE3B7"/>
<path fill-rule="evenodd" clip-rule="evenodd" d="M36.2051 46.7676L71.3806 46.7676L71.3806 45.5795L36.2051 45.5795L36.2051 46.7676Z" fill="#E9C99D"/>
<path d="M36.2051 47.9561L36.2051 46.768L71.3806 46.768L71.3806 47.9561L36.2051 47.9561Z" fill="#FDE3B7"/>
<path fill-rule="evenodd" clip-rule="evenodd" d="M36.2051 47.9561L71.3806 47.9561L71.3806 46.768L36.2051 46.768L36.2051 47.9561Z" fill="#E9C99D"/>
<path d="M36.2051 43.2032L36.2051 42.0151L71.3806 42.015L71.3806 43.2032L36.2051 43.2032Z" fill="#FDE3B7"/>
<path fill-rule="evenodd" clip-rule="evenodd" d="M36.2051 43.2032L71.3806 43.2032L71.3806 42.015L36.2051 42.0151L36.2051 43.2032Z" fill="#E9C99D"/>
<path d="M36.2051 45.5801L36.2051 44.392L71.3806 44.392L71.3806 45.5801L36.2051 45.5801Z" fill="#FDE3B7"/>
<path fill-rule="evenodd" clip-rule="evenodd" d="M36.2051 45.5801L71.3806 45.5801L71.3806 44.392L36.2051 44.392L36.2051 45.5801Z" fill="#E9C99D"/>
</g>
<mask id="mask2_324_7041" style="mask-type:alpha" maskUnits="userSpaceOnUse" x="33" y="25" width="36" height="9">
<path d="M33.6514 25.8604H68.0675V33.6402H33.6514V25.8604Z" fill="#D9D9D9"/>
</mask>
<g mask="url(#mask2_324_7041)">
<path d="M33.6514 33.6406L33.6514 25.8608L68.111 25.8607L68.111 33.6406L33.6514 33.6406Z" fill="#F9AD30"/>
<path d="M35.353 29.2637L35.353 28.1939L69.7063 28.1939L69.7063 29.2637L35.353 29.2637Z" fill="#FDE3B7"/>
<path fill-rule="evenodd" clip-rule="evenodd" d="M35.353 29.2637L69.7063 29.2637L69.7063 28.1939L35.353 28.1939L35.353 29.2637Z" fill="#E9C99D"/>
<path d="M35.353 31.4033L35.353 30.3336L69.7063 30.3336L69.7063 31.4033L35.353 31.4033Z" fill="#FDE3B7"/>
<path fill-rule="evenodd" clip-rule="evenodd" d="M35.353 31.4033L69.7063 31.4033L69.7063 30.3336L35.353 30.3336L35.353 31.4033Z" fill="#E9C99D"/>
<path d="M35.353 32.4736L35.353 31.4039L69.7063 31.4039L69.7063 32.4736L35.353 32.4736Z" fill="#FDE3B7"/>
<path fill-rule="evenodd" clip-rule="evenodd" d="M35.353 32.4736L69.7063 32.4736L69.7063 31.4039L35.353 31.4039L35.353 32.4736Z" fill="#E9C99D"/>
<path d="M35.353 28.1943L35.353 27.1246L69.7063 27.1246L69.7063 28.1943L35.353 28.1943Z" fill="#FDE3B7"/>
<path fill-rule="evenodd" clip-rule="evenodd" d="M35.353 28.1943L69.7063 28.1943L69.7063 27.1246L35.353 27.1246L35.353 28.1943Z" fill="#E9C99D"/>
<path d="M35.353 30.334L35.353 29.2643L69.7063 29.2643L69.7063 30.334L35.353 30.334Z" fill="#FDE3B7"/>
<path fill-rule="evenodd" clip-rule="evenodd" d="M35.353 30.334L69.7063 30.334L69.7063 29.2643L35.353 29.2643L35.353 30.334Z" fill="#E9C99D"/>
</g>
<mask id="mask3_324_7041" style="mask-type:alpha" maskUnits="userSpaceOnUse" x="42" y="19" width="30" height="7">
<path d="M42.6104 19.3945H71.4544V25.8595H42.6104V19.3945Z" fill="#D9D9D9"/>
</mask>
<g mask="url(#mask3_324_7041)">
<path d="M42.6104 25.8595L42.6104 19.3945L71.4312 19.3945L71.4312 25.8595L42.6104 25.8595Z" fill="#D5204A"/>
<path d="M44.0342 22.2227L44.0342 21.3337L72.766 21.3337L72.766 22.2227L44.0342 22.2227Z" fill="#FDE3B7"/>
<path fill-rule="evenodd" clip-rule="evenodd" d="M44.0342 22.2227L44.0342 21.3337L72.766 21.3337L72.766 22.2227L44.0342 22.2227Z" fill="#E9C99D"/>
<path d="M44.0342 24.001L44.0342 23.112L72.766 23.112L72.766 24.001L44.0342 24.001Z" fill="#FDE3B7"/>
<path fill-rule="evenodd" clip-rule="evenodd" d="M44.0342 24.001L44.0342 23.112L72.766 23.112L72.766 24.001L44.0342 24.001Z" fill="#E9C99D"/>
<path d="M44.0342 24.8896L44.0342 24.0007L72.766 24.0007L72.766 24.8896L44.0342 24.8896Z" fill="#FDE3B7"/>
<path fill-rule="evenodd" clip-rule="evenodd" d="M44.0342 24.8896L44.0342 24.0007L72.766 24.0007L72.766 24.8896L44.0342 24.8896Z" fill="#E9C99D"/>
<path d="M44.0342 21.334L44.0342 20.4451L72.766 20.4451L72.766 21.334L44.0342 21.334Z" fill="#FDE3B7"/>
<path fill-rule="evenodd" clip-rule="evenodd" d="M44.0342 21.334L44.0342 20.4451L72.766 20.4451L72.766 21.334L44.0342 21.334Z" fill="#E9C99D"/>
<path d="M44.0342 23.1123L44.0342 22.2234L72.766 22.2234L72.766 23.1123L44.0342 23.1123Z" fill="#FDE3B7"/>
<path fill-rule="evenodd" clip-rule="evenodd" d="M44.0342 23.1123L44.0342 22.2234L72.766 22.2234L72.766 23.1123L44.0342 23.1123Z" fill="#E9C99D"/>
</g>
<path d="M48.7288 22.0244H45.7788V25.5308L47.363 24.1611L48.7288 25.5308V22.0244Z" fill="#F9AD30"/>
<path d="M42.283 36.4883H39.333V39.9947L40.9172 38.625L42.283 39.9947V36.4883Z" fill="#D3244C"/>
<path d="M68.8325 8.32422L76.5238 7.56109L80.5017 47.8866L72.8104 48.6497L68.8325 8.32422Z" fill="#3C0414"/>
<path d="M69.0811 10.8467L76.7724 10.0836L76.9639 12.0252L69.2726 12.7883L69.0811 10.8467Z" fill="#F6E1BD"/>
<path d="M69.4072 14.1514L77.0985 13.3882L77.2392 14.8144L69.5479 15.5776L69.4072 14.1514Z" fill="#F6E1BD"/>
<path d="M71.4341 17.8477L75.9914 17.3955L76.8029 25.6222L72.2456 26.0744L71.4341 17.8477Z" fill="#F6E1BD"/>
<path d="M21.8514 28.6539C21.8514 29.713 20.9953 30.5715 19.9394 30.5715C18.8834 30.5715 18.0273 29.713 18.0273 28.6539C18.0273 27.5949 18.8834 26.7363 19.9394 26.7363C20.9953 26.7363 21.8514 27.5949 21.8514 28.6539Z" fill="#FDE3B7"/>
</svg>
