<svg width="16" height="16" viewBox="0 0 16 16" fill="none" xmlns="http://www.w3.org/2000/svg">
<path d="M8.71917 8.11081C8.57164 8.25854 8.40936 8.29548 8.23232 8.22161C8.05528 8.14774 7.96676 8.00739 7.96676 7.80056V0.886429C7.96676 0.635275 8.05174 0.424601 8.22169 0.254407C8.39165 0.0842135 8.60174 -0.000587884 8.85195 3.06722e-06H15.0483C15.2991 3.06722e-06 15.5095 0.0850999 15.6795 0.255294C15.8494 0.425488 15.9341 0.635866 15.9335 0.886429V5.31856C15.9335 5.56972 15.8485 5.78039 15.6786 5.95058C15.5086 6.12078 15.2985 6.20558 15.0483 6.20499H10.6223L8.71917 8.11081ZM15.0041 16C13.1009 16 11.2458 15.5751 9.43884 14.7253C7.63186 13.8755 6.03113 12.7527 4.63665 11.3569C3.24218 9.96107 2.12093 8.35812 1.27291 6.54804C0.424894 4.73795 0.00059013 2.8803 0 0.975072C0 0.709144 0.0885195 0.487538 0.265559 0.310252C0.442598 0.132967 0.663897 0.0443243 0.929455 0.0443243H4.5145C4.72104 0.0443243 4.90546 0.110806 5.06774 0.24377C5.23003 0.376734 5.32593 0.546633 5.35543 0.753465L5.93081 3.85596C5.96032 4.06279 5.95648 4.2513 5.9193 4.4215C5.88212 4.59169 5.79744 4.74298 5.66525 4.87535L3.54078 7.04709C4.16042 8.1108 4.93496 9.10803 5.86442 10.0388C6.79387 10.9695 7.81923 11.7747 8.94047 12.4543L11.0207 10.3712C11.1535 10.2382 11.327 10.1387 11.5412 10.0725C11.7554 10.0063 11.9655 9.98767 12.1714 10.0166L15.2254 10.6371C15.4319 10.6814 15.6016 10.7813 15.7343 10.9367C15.8671 11.0922 15.9335 11.273 15.9335 11.4792V15.0693C15.9335 15.3352 15.845 15.5568 15.668 15.7341C15.4909 15.9114 15.2696 16 15.0041 16Z" fill="#E7E7E7"/>
</svg>
