<svg width="43" height="34" viewBox="0 0 43 34" fill="none" xmlns="http://www.w3.org/2000/svg">
<path d="M43 4C41.4173 4.7 39.7113 5.16 37.9436 5.38C39.7524 4.32 41.1501 2.64 41.8078 0.62C40.1018 1.62 38.2108 2.32 36.217 2.72C34.5932 1 32.3117 0 29.7218 0C24.8915 0 20.945 3.84 20.945 8.58C20.945 9.26 21.0272 9.92 21.1711 10.54C13.8537 10.18 7.33795 6.76 3.00096 1.58C2.24044 2.84 1.8088 4.32 1.8088 5.88C1.8088 8.86 3.35038 11.5 5.7347 13C4.27533 13 2.91874 12.6 1.72658 12V12.06C1.72658 16.22 4.76864 19.7 8.79732 20.48C7.50388 20.8244 6.14599 20.8723 4.83031 20.62C5.38858 22.325 6.48194 23.8168 7.95668 24.8859C9.43142 25.9549 11.2134 26.5474 13.0521 26.58C9.93528 28.9809 6.07179 30.2786 2.09656 30.26C1.39771 30.26 0.698853 30.22 0 30.14C3.90535 32.58 8.55067 34 13.5249 34C29.7218 34 38.6219 20.92 38.6219 9.58C38.6219 9.2 38.6219 8.84 38.6013 8.46C40.3279 7.26 41.8078 5.74 43 4Z" fill="#D5204A"/>
</svg>
