<svg width="14" height="12" viewBox="0 0 14 12" fill="none" xmlns="http://www.w3.org/2000/svg">
<path d="M6.52458 0.463526C6.67426 0.00287055 7.32596 0.00286993 7.47564 0.463525L8.57171 3.83688C8.63865 4.04289 8.83062 4.18237 9.04724 4.18237H12.5942C13.0786 4.18237 13.2799 4.80218 12.8881 5.08688L10.0185 7.17173C9.8433 7.29905 9.76997 7.52474 9.8369 7.73075L10.933 11.1041C11.0826 11.5648 10.5554 11.9478 10.1636 11.6631L7.294 9.57827C7.11876 9.45095 6.88146 9.45095 6.70622 9.57827L3.83667 11.6631C3.44481 11.9478 2.91757 11.5648 3.06725 11.1041L4.16332 7.73075C4.23026 7.52474 4.15693 7.29905 3.98168 7.17173L1.11214 5.08688C0.72028 4.80218 0.921668 4.18237 1.40603 4.18237H4.95298C5.1696 4.18237 5.36158 4.04289 5.42851 3.83688L6.52458 0.463526Z" fill="white"/>
</svg>
