<svg width="13" height="12" viewBox="0 0 13 12" fill="none" xmlns="http://www.w3.org/2000/svg">
<path d="M6.02458 0.463526C6.17426 0.00287055 6.82596 0.00286993 6.97564 0.463525L8.07171 3.83688C8.13865 4.04289 8.33062 4.18237 8.54724 4.18237H12.0942C12.5786 4.18237 12.7799 4.80218 12.3881 5.08688L9.51854 7.17173C9.3433 7.29905 9.26997 7.52474 9.3369 7.73075L10.433 11.1041C10.5826 11.5648 10.0554 11.9478 9.66355 11.6631L6.794 9.57827C6.61876 9.45095 6.38146 9.45095 6.20622 9.57827L3.33667 11.6631C2.94481 11.9478 2.41757 11.5648 2.56725 11.1041L3.66332 7.73075C3.73026 7.52474 3.65693 7.29905 3.48168 7.17173L0.612137 5.08688C0.22028 4.80218 0.421668 4.18237 0.906029 4.18237H4.45298C4.6696 4.18237 4.86158 4.04289 4.92851 3.83688L6.02458 0.463526Z" fill="#F2921D"/>
</svg>
